<svg xmlns="http://www.w3.org/2000/svg" width="304" height="36" viewBox="0 0 304 36"><path d="M240.438 0.408v5.718h-14.428v7.008h9.188v5.718h-9.188v9.186h14.904v5.718h-21.098V0.408h20.62ZM12.182 0.408c1.43 0 2.722 0.204 3.88 0.546a8.48 8.48 0 0 1 2.994 1.632c0.816 0.75 1.496 1.7 1.974 2.79 0.476 1.158 0.68 2.45 0.68 3.948 0 1.36 -0.272 2.586 -0.884 3.676a5.34 5.34 0 0 1 -2.45 2.448 7.872 7.872 0 0 1 3.674 2.928c0.884 1.36 1.294 3.06 1.294 5.172 0 3.266 -0.954 5.716 -2.928 7.486 -1.972 1.7 -4.626 2.586 -8.03 2.586H0V0.408h12.18ZM6.194 5.922v7.348h5.648c1.226 0 2.178 -0.27 2.858 -0.816 0.68 -0.544 1.02 -1.498 1.02 -2.86 0 -1.36 -0.34 -2.312 -1.02 -2.856 -0.68 -0.544 -1.7 -0.816 -2.994 -0.816H6.194ZM11.842 18.92c1.974 0 3.334 0.408 4.15 1.156 0.818 0.818 1.226 1.906 1.226 3.336 0 1.428 -0.408 2.586 -1.226 3.334 -0.816 0.748 -2.244 1.156 -4.15 1.156H6.194V18.92ZM137.062 0.408v33.28h-6.534l-12.18 -21.982v21.98h-6.194V0.41h6.534l12.18 21.98V0.41h6.194Zm58.324 0v27.562h14.086v5.718h-20.28V0.408h6.194ZM152.238 33.62V0.408h10.208c1.906 0 3.812 0.34 5.58 0.954a13.07 13.07 0 0 1 4.9 2.994c1.43 1.36 2.588 3.062 3.404 5.172 0.884 2.11 1.292 4.628 1.292 7.486 0 2.926 -0.408 5.444 -1.292 7.486 -0.884 2.11 -1.974 3.81 -3.402 5.172a13.07 13.07 0 0 1 -4.9 2.994 17.488 17.488 0 0 1 -5.58 0.954h-10.21Zm18.24 -22.05c-0.68 -1.43 -1.498 -2.52 -2.52 -3.336 -1.02 -0.816 -2.244 -1.36 -3.538 -1.7a15.164 15.164 0 0 0 -3.88 -0.476h-2.108V27.9h2.11c1.292 0 2.586 -0.136 3.88 -0.476a10.03 10.03 0 0 0 3.536 -1.7 8.48 8.48 0 0 0 2.52 -3.336c0.68 -1.428 0.952 -3.2 0.952 -5.444 0 -2.178 -0.272 -3.946 -0.954 -5.376ZM47.092 0c1.974 0 3.88 0.34 5.716 1.02 1.838 0.68 3.404 1.77 4.764 3.132 1.36 1.36 2.45 3.13 3.268 5.308 0.816 2.11 1.224 4.628 1.224 7.554 0 2.858 -0.408 5.376 -1.224 7.554 -0.818 2.11 -1.906 3.88 -3.268 5.308 -1.36 1.36 -2.926 2.45 -4.764 3.132 -1.836 0.68 -3.674 1.02 -5.716 1.02a16.34 16.34 0 0 1 -5.716 -1.02c-1.838 -0.68 -3.404 -1.77 -4.764 -3.132 -1.36 -1.36 -2.45 -3.13 -3.268 -5.308 -0.816 -2.11 -1.224 -4.628 -1.224 -7.554 0 -2.86 0.408 -5.376 1.224 -7.554 0.818 -2.11 1.906 -3.88 3.268 -5.308 1.36 -1.36 2.926 -2.45 4.764 -3.13A16.32 16.32 0 0 1 47.092 0Zm0 5.716a8.48 8.48 0 0 0 -3.402 0.68 8.464 8.464 0 0 0 -2.86 2.044 10.412 10.412 0 0 0 -1.972 3.538c-0.476 1.428 -0.748 3.13 -0.748 5.104 0 1.974 0.272 3.676 0.748 5.104a10.4 10.4 0 0 0 1.974 3.54 6.94 6.94 0 0 0 2.858 2.04c1.088 0.476 2.246 0.68 3.402 0.68 1.156 0 2.314 -0.204 3.402 -0.68a8.464 8.464 0 0 0 2.86 -2.04c0.816 -0.886 1.496 -2.11 1.972 -3.54 0.476 -1.428 0.75 -3.13 0.75 -5.104 0 -1.974 -0.274 -3.676 -0.75 -5.104a10.412 10.412 0 0 0 -1.974 -3.54c-0.816 -0.884 -1.768 -1.632 -2.858 -2.04a8.214 8.214 0 0 0 -3.402 -0.68Zm50.632 15.314c0 2.246 -0.34 4.15 -0.952 5.784a11.348 11.348 0 0 1 -2.586 4.082 9.34 9.34 0 0 1 -3.948 2.382c-1.496 0.546 -3.198 0.818 -4.968 0.818 -1.768 0 -3.47 -0.272 -4.968 -0.818 -1.496 -0.544 -2.858 -1.292 -3.946 -2.38a11.348 11.348 0 0 1 -2.586 -4.084c-0.614 -1.634 -0.954 -3.54 -0.954 -5.784V0.41h6.194v20.686c0 4.834 2.04 7.214 6.192 7.214s6.194 -2.38 6.194 -7.214V0.408h6.192v20.62h0.136Zm168.844 -11.842c-0.68 -1.226 -1.36 -2.11 -2.11 -2.654a4.334 4.334 0 0 0 -2.586 -0.818c-0.952 0 -1.7 0.274 -2.314 0.886a2.83 2.83 0 0 0 -0.952 2.178c0 0.952 0.34 1.768 1.09 2.45 0.68 0.68 1.632 1.292 2.72 1.838 1.09 0.544 2.246 1.088 3.472 1.7 1.224 0.544 2.38 1.224 3.47 2.042 1.09 0.748 1.974 1.7 2.722 2.86 0.68 1.088 1.09 2.516 1.09 4.15a12.42 12.42 0 0 1 -0.75 4.354c-0.544 1.294 -1.224 2.382 -2.176 3.268a9.77 9.77 0 0 1 -3.472 2.04c-1.36 0.478 -2.79 0.682 -4.422 0.682a12.312 12.312 0 0 1 -4.288 -0.75 11.126 11.126 0 0 1 -3.472 -2.04 11.818 11.818 0 0 1 -2.518 -2.994 11.768 11.768 0 0 1 -1.428 -3.608l5.104 -3.13c0.272 0.884 0.612 1.77 0.952 2.586 0.41 0.816 0.884 1.564 1.43 2.178 0.544 0.612 1.156 1.088 1.904 1.496 0.68 0.34 1.566 0.546 2.45 0.546 1.294 0 2.384 -0.34 3.2 -1.02 0.816 -0.682 1.224 -1.772 1.224 -3.336 0 -0.886 -0.34 -1.702 -1.02 -2.314 -0.68 -0.614 -1.566 -1.158 -2.654 -1.7a80.67 80.67 0 0 0 -3.404 -1.636 15.558 15.558 0 0 1 -3.402 -2.04 9.89 9.89 0 0 1 -2.654 -2.928c-0.68 -1.156 -1.02 -2.654 -1.02 -4.422 0 -1.294 0.204 -2.45 0.68 -3.54 0.476 -1.088 1.088 -2.04 1.906 -2.858a8.712 8.712 0 0 1 2.926 -1.904 9.526 9.526 0 0 1 3.674 -0.682c2.246 0 4.22 0.544 5.92 1.566a10.08 10.08 0 0 1 3.88 4.492l-5.172 3.06Zm30.828 0c-0.68 -1.226 -1.36 -2.11 -2.108 -2.654a4.336 4.336 0 0 0 -2.586 -0.818c-0.954 0 -1.702 0.274 -2.314 0.886a2.83 2.83 0 0 0 -0.954 2.178c0 0.952 0.34 1.768 1.09 2.45 0.68 0.68 1.632 1.292 2.72 1.838 1.09 0.544 2.248 1.088 3.472 1.7a17.78 17.78 0 0 1 3.472 2.042c1.088 0.748 1.974 1.7 2.72 2.86 0.682 1.088 1.09 2.516 1.09 4.15a12.42 12.42 0 0 1 -0.748 4.354c-0.546 1.294 -1.226 2.382 -2.18 3.268a9.76 9.76 0 0 1 -3.468 2.04c-1.362 0.478 -2.792 0.682 -4.424 0.682a12.312 12.312 0 0 1 -4.288 -0.75 11.126 11.126 0 0 1 -3.47 -2.04 11.818 11.818 0 0 1 -2.52 -2.994 11.768 11.768 0 0 1 -1.428 -3.608l5.104 -3.13c0.272 0.884 0.612 1.77 0.954 2.586 0.408 0.816 0.884 1.564 1.428 2.178 0.544 0.612 1.158 1.088 1.906 1.496 0.68 0.34 1.564 0.546 2.45 0.546 1.292 0 2.382 -0.34 3.2 -1.02 0.814 -0.682 1.224 -1.772 1.224 -3.336 0 -0.886 -0.34 -1.702 -1.02 -2.314 -0.682 -0.614 -1.566 -1.158 -2.656 -1.7a80.554 80.554 0 0 0 -3.402 -1.636 15.558 15.558 0 0 1 -3.404 -2.04 9.89 9.89 0 0 1 -2.654 -2.928c-0.68 -1.156 -1.02 -2.654 -1.02 -4.422 0 -1.294 0.204 -2.45 0.68 -3.54 0.476 -1.088 1.09 -2.04 1.906 -2.858a8.708 8.708 0 0 1 2.926 -1.904 9.532 9.532 0 0 1 3.676 -0.682c2.246 0 4.22 0.544 5.92 1.566a10.08 10.08 0 0 1 3.88 4.492l-5.174 3.06Z" fill="#FFF" fill-rule="evenodd"/></svg>