<svg xmlns="http://www.w3.org/2000/svg" id="Layer_1" viewBox="0 0 378.59 100.17" class="icon-simple-logo" aria-hidden="true"><defs/><path style="fill:#fff;" d="M121.14 39a20.41 20.41 0 0 0 2-.4c-.63.13-1.32.27-2 .4z" transform="translate(-50.06 -32.81)"/><g id="SIMPLE_custom"><path style="fill:#fff;" d="M205 79.8c8.52 2.07 13 5.13 13 11.86 0 7.6-5.93 12.09-14.39 12.09A24.74 24.74 0 0 1 187.54 98a1 1 0 0 1-.11-1.41l3-3.54a1 1 0 0 1 1.41-.12c3.61 2.94 7.28 4.6 12 4.6 4.37 0 7.14-2 7.14-5.12 0-2.94-1.61-4.49-9.09-6.22-8.58-2.07-13.42-4.61-13.42-12.09 0-7 5.76-11.75 13.76-11.75A22.3 22.3 0 0 1 216 66.77a1 1 0 0 1 .21 1.38l-2.66 3.75a1 1 0 0 1-1.4.23A17.72 17.72 0 0 0 202 68.57c-4.15 0-6.56 2.13-6.56 4.84.04 3.17 1.88 4.59 9.56 6.39zM240.73 63.87v38.31a1 1 0 0 1-1 1h-5.09a1 1 0 0 1-1-1V63.87a1 1 0 0 1 1-1h5.09a1 1 0 0 1 1 1zM275.65 89.78l-8.45-12.65a1 1 0 0 0-1.83.56v24.49a1 1 0 0 1-1 1h-5a1 1 0 0 1-1-1V63.87a1 1 0 0 1 1-1h6a1 1 0 0 1 .84.46l11.13 17.3a1 1 0 0 0 1.68 0l11.13-17.3a1 1 0 0 1 .84-.46h6a1 1 0 0 1 1 1v38.31a1 1 0 0 1-1 1h-5.08a1 1 0 0 1-1-1V77.56a1 1 0 0 0-1.81-.56l-8.55 12.77a1 1 0 0 1-.83.44h-3.24a1 1 0 0 1-.83-.43zM330.37 90.22h-7a1 1 0 0 0-1 1v11a1 1 0 0 1-1 1h-5.08a1 1 0 0 1-1-1V63.87a1 1 0 0 1 1-1h14.89c9.38 0 15.31 5.3 15.31 13.53 0 9.1-7.25 13.82-16.12 13.82zm.23-20.9h-7.23a1 1 0 0 0-1 1v12.52a1 1 0 0 0 1 1h7.23c5.36 0 8.7-2.94 8.7-7.26 0-4.78-3.4-7.26-8.7-7.26zM359.93 62.87H365a1 1 0 0 1 1 1v31.86a1 1 0 0 0 1 1h19.2a1 1 0 0 1 1 1v4.45a1 1 0 0 1-1 1h-26.27a1 1 0 0 1-1-1V63.87a1 1 0 0 1 1-1z" transform="translate(-50.06 -32.81)"/><path style="fill:#fff;" d="M427.65 69.21h-21.1a1 1 0 0 0-1 1v8.48a1 1 0 0 0 1 1h20.35a1 1 0 0 1 1 1V85a1 1 0 0 1-1 1h-20.35a1 1 0 0 0-1 1v8.82a1 1 0 0 0 1 1h21.1a1 1 0 0 1 1 1v4.34a1 1 0 0 1-1 1h-28.18a1 1 0 0 1-1-1V63.87a1 1 0 0 1 1-1h28.18a1 1 0 0 1 1 1v4.34a1 1 0 0 1-1 1z" transform="translate(-50.06 -32.81)"/></g><path style="fill:#fff;" d="M148.95 69.34a30.42 30.42 0 0 0-11.62-16.4 29.66 29.66 0 0 0-4.6-2.69 1.33 1.33 0 0 1-.61-.63 33.09 33.09 0 0 0-2.77-4.54 30.52 30.52 0 0 0-16.59-11.36 28.9 28.9 0 0 0-7.47-.91 31 31 0 0 0-12.53 2.77 31.64 31.64 0 0 0-4.7 2.68 1.32 1.32 0 0 1-.71.21c-.78-.06-1.56-.08-2.29-.08a28.14 28.14 0 0 0-3.08.19 30.48 30.48 0 0 0-9.88 2.82 29.84 29.84 0 0 0-8.26 5.85 30.34 30.34 0 0 0-8.43 23.59 1.38 1.38 0 0 1-.22.84 33 33 0 0 0-2.57 4.67 29.57 29.57 0 0 0 10.08 36.43 29.57 29.57 0 0 0 4.61 2.7 1.4 1.4 0 0 1 .61.62 30.8 30.8 0 0 0 2.76 4.54 30.28 30.28 0 0 0 7.38 7.12 29.93 29.93 0 0 0 9.21 4.24 29.06 29.06 0 0 0 7.49.92 30.85 30.85 0 0 0 12.51-2.78 31.44 31.44 0 0 0 4.7-2.67 1.35 1.35 0 0 1 .71-.2c.71 0 1.47.07 2.33.07a29.69 29.69 0 0 0 29.59-27.12 32.65 32.65 0 0 0 0-5.33 1.31 1.31 0 0 1 .22-.85 31.4 31.4 0 0 0 2.56-4.66A30.86 30.86 0 0 0 150 76.82a28.33 28.33 0 0 0-1.05-7.48zM97.7 38.48a26.47 26.47 0 0 1 7.6-1.18 24.42 24.42 0 0 1 6.34.77 25.74 25.74 0 0 1 12 7.15 1.18 1.18 0 0 1 .23 1.27 1.2 1.2 0 0 1-1.07.72.48.48 0 0 1-.18 0 33.5 33.5 0 0 0-3.35-.32c-.69 0-1.44-.06-2.31 0a44.45 44.45 0 0 0-7.28.68h-.16a1.28 1.28 0 0 1-.74-.26A41.7 41.7 0 0 0 100.7 42a33.17 33.17 0 0 0-3.07-1.34 1.13 1.13 0 0 1-.74-1.13 1.14 1.14 0 0 1 .81-1.05zM82.22 50.62a30.87 30.87 0 0 1 6.4-7.16 1.2 1.2 0 0 1 .76-.27h.18a31.4 31.4 0 0 1 9.16 2.86c.83.4 1.7.88 2.68 1.46a1.18 1.18 0 0 1 .55 1.15 1.14 1.14 0 0 1-.82 1c-1.16.36-2.26.72-3.34 1.08l-.44.15c-2.32.75-4 1.28-5.69 1.76s-3.34.85-5.12 1.25l-.64.1c-1.28.28-2.56.57-3.9.9a.89.89 0 0 1-.27 0 1.16 1.16 0 0 1-1-.57 1.18 1.18 0 0 1 0-1.15c.42-.82.94-1.71 1.49-2.56zM64.77 93.19a42.64 42.64 0 0 0-.46 9.49c.07 1 .2 2.15.38 3.32a1.17 1.17 0 0 1-.25 1 1.24 1.24 0 0 1-.89.41 1.12 1.12 0 0 1-.8-.31 24.86 24.86 0 0 1-7.15-25.86 1.18 1.18 0 0 1 2.22-.11c.41 1 .88 2.07 1.38 3.06a42.73 42.73 0 0 0 5.27 7.92 1.33 1.33 0 0 1 .3 1.08zM68 80.69c-.39 1.24-.78 2.5-1.18 3.82a1.16 1.16 0 0 1-1.11.85 1.14 1.14 0 0 1-1-.55 28.93 28.93 0 0 1-1.51-2.64 31 31 0 0 1-3.05-9.45 27.22 27.22 0 0 1-.24-6.78c0-.46.09-.88.16-1.31a24.9 24.9 0 0 1 19.15-21 1.2 1.2 0 0 1 .28 0 1.12 1.12 0 0 1 1 .65 1.15 1.15 0 0 1-.13 1.25c-.66.84-1.31 1.75-2 2.71a42.08 42.08 0 0 0-4.35 8.9.48.48 0 0 1-.29.3 43 43 0 0 0-8.07 4l-.35.24-.31.18-.2.14-.09.06-.15.1-.08.06-.19.12a.38.38 0 0 0-.15.24 3.1 3.1 0 0 0 0 .33v.34q0 .34-.07.68-.06.69-.1 1.39t0 1.43v.38a.5.5 0 0 0 .79.41c.6-.42 1.21-.83 1.83-1.25l.26-.29c.21-.16.42-.31.64-.45l.35-.23c.67-.45 1.42-.9 2.25-1.36a1.24 1.24 0 0 1 1.49.3 1.23 1.23 0 0 1 .23 1c-.28 1.16-.51 2.28-.74 3.36l-.12.55c-.37 1.88-.79 3.88-1.29 5.8s-1 3.54-1.57 5.36zm4.45 32.06l-1.2-.44-.15-.09-.1-.22a31.61 31.61 0 0 1-2.21-9.67 28.41 28.41 0 0 1-.07-3 1.16 1.16 0 0 1 1.17-1.14 1.15 1.15 0 0 1 .79.3c1 .94 2 1.83 3 2.68l.23.21c1.36 1.21 2.79 2.51 4.14 3.82s2.64 2.73 4.09 4.31c.38.41.77.82 1.15 1.24l.11.12a.15.15 0 0 0 .12 0 33.84 33.84 0 0 0 4.61-.41.5.5 0 0 0 .28-.85c-1-1-1.92-2-3-3.18l-.47-.43c-1.18-1.28-2.46-2.65-3.77-3.94s-2.57-2.43-3.85-3.58l-.71-.64c-1.53-1.37-3-2.65-4.46-4.09-.67-.62-1.33-1.28-2-1.94a1.38 1.38 0 0 1-.34-1.25c.21-.9.43-1.79.67-2.65.52-1.94 1.09-3.75 1.58-5.3l.32-1.06c.57-1.85 1.12-3.6 1.57-5.4s.91-3.86 1.36-6l.18-.88c.33-1.53.7-3.27 1.15-5.07.19-.79.42-1.68.7-2.63a1.41 1.41 0 0 1 .93-.94c.78-.24 1.51-.44 2.18-.63l.43-.12c2.12-.55 4.11-1 5.94-1.41l.74-.17c1.82-.42 3.53-.82 5.24-1.29s3.6-1.09 5.33-1.64l.56-.18c1.81-.6 3.75-1.24 5.81-1.85 1.21-.34 2.19-.6 3.1-.81a43.64 43.64 0 0 1 6.85-1.08c.84-.07 1.68-.11 2.5-.11h2a31.29 31.29 0 0 1 9.67 2.07.49.49 0 0 1 .3.28 31.2 31.2 0 0 1 2.23 9.67c.06.94.08 1.93.06 3a1.17 1.17 0 0 1-2 .84c-1-.94-2-1.83-3-2.68l-.5-.45c-1.36-1.22-2.65-2.39-3.87-3.57s-2.46-2.55-3.74-3.92l-.38-.41-.82-.9-.34-.37a.41.41 0 0 0-.3-.11 33.59 33.59 0 0 0-4.5.41.51.51 0 0 0-.29.85c.87.91 1.71 1.82 2.65 2.81l.77.85c1.22 1.31 2.48 2.67 3.8 4s2.92 2.76 4.38 4.07l.69.6.54.5c1.11 1 2.26 2 3.43 3.16.67.64 1.43 1.4 2.23 2.25a.55.55 0 0 1 .13.46c-.23 1.07-.49 2.11-.77 3.11-.55 2.05-1.12 3.89-1.67 5.67l-.13.42c-.6 1.93-1.17 3.76-1.67 5.67s-.88 3.75-1.35 6l-.24 1.15c-.33 1.54-.68 3.14-1.09 4.82q-.33 1.38-.84 3.09a.53.53 0 0 1-.34.33c-1.11.35-2.15.65-3 .89-2.12.56-4.12 1-5.92 1.42l-.29.06c-1.87.43-3.81.87-5.72 1.39s-3.83 1.16-5.72 1.74h-.06l-.94.31c-1.59.52-3.23 1.06-5 1.57h-.12c-.7.21-1.77.51-3 .79a45.46 45.46 0 0 1-6.84 1.08c-.83.07-1.68.11-2.5.11h-2l-1.27-.09-1.12-.13h-.34l-.77-.15a1 1 0 0 1-.19 0c-.3 0-.6-.11-.88-.18-.56-.1-1.12-.23-1.66-.37s-1.41-.45-2.21-.7zm29.89 14.49a26.43 26.43 0 0 1-7.6 1.19 24.77 24.77 0 0 1-6.35-.77 25.75 25.75 0 0 1-12-7.16 1.16 1.16 0 0 1-.23-1.26 1.18 1.18 0 0 1 1.07-.71h.19c1.09.16 2.22.28 3.33.34.77 0 1.56.06 2.35 0a44.19 44.19 0 0 0 7.22-.69h.2a1.2 1.2 0 0 1 .72.24 43 43 0 0 0 8.08 5.23c1 .46 2 .91 3.07 1.32a1.19 1.19 0 0 1 .76 1.14 1.17 1.17 0 0 1-.82 1.13zm15.47-12.13a30.61 30.61 0 0 1-6.39 7.15 1.12 1.12 0 0 1-.74.28h-.19a30.6 30.6 0 0 1-9.17-2.85c-.94-.46-1.84-1-2.68-1.46a1.19 1.19 0 0 1 .27-2.14c1-.31 2-.62 3-1l.83-.26c2-.65 3.81-1.25 5.67-1.78 1.64-.45 3.32-.84 5.09-1.23l.71-.17c1.26-.28 2.54-.57 3.87-.89a1.34 1.34 0 0 1 .28 0 1.14 1.14 0 0 1 1 .57 1.18 1.18 0 0 1 0 1.14c-.49.92-1.02 1.81-1.56 2.64zm22.31-15.31c0 .45-.09.89-.17 1.32a24.88 24.88 0 0 1-19.14 21 1.17 1.17 0 0 1-.27 0 1.18 1.18 0 0 1-.92-1.91c.68-.85 1.33-1.76 1.95-2.71a43.27 43.27 0 0 0 4.22-8.54 1.4 1.4 0 0 1 .8-.8 41.77 41.77 0 0 0 7.82-3.94l.35-.23.37-.24.2-.14.09-.06.23-.16.22-.15a.23.23 0 0 0 .07-.07 2.25 2.25 0 0 0 .06-.25 31.42 31.42 0 0 0 .27-4.4.5.5 0 0 0-.79-.41c-1 .67-1.92 1.31-3 2-.77.52-1.65 1.06-2.61 1.59a1.11 1.11 0 0 1-.55.15 1.17 1.17 0 0 1-.94-.44 1.23 1.23 0 0 1-.23-1c.25-1 .45-2 .65-3l.21-.92c.34-1.74.77-3.8 1.29-5.82.47-1.79 1-3.6 1.58-5.35l.1-.32c.39-1.24.77-2.51 1.16-3.84a1.17 1.17 0 0 1 1.13-.84 1.23 1.23 0 0 1 1 .54c.6 1 1.09 1.83 1.5 2.65a31.29 31.29 0 0 1 3.11 9.49 26.75 26.75 0 0 1 .24 6.8zm4.32-15.28a1.17 1.17 0 0 1-2.21.09c-.41-1-.88-2.06-1.38-3a43.45 43.45 0 0 0-5.29-7.93 1.35 1.35 0 0 1-.29-1.08 42.8 42.8 0 0 0 .47-9.49c-.1-1.18-.22-2.31-.39-3.33a1.16 1.16 0 0 1 .25-.93 1.21 1.21 0 0 1 .91-.42 1.13 1.13 0 0 1 .79.3 24.93 24.93 0 0 1 7.14 25.79z" transform="translate(-50.06 -32.81)"/><path style="fill:#fff;" d="M149 69.4A30.42 30.42 0 0 0 137.33 53a29.67 29.67 0 0 0-4.6-2.69 1.33 1.33 0 0 1-.61-.63 33.09 33.09 0 0 0-2.77-4.54 30.52 30.52 0 0 0-16.59-11.36 28.9 28.9 0 0 0-7.47-.91 31 31 0 0 0-12.53 2.77 31.64 31.64 0 0 0-4.7 2.68 1.32 1.32 0 0 1-.71.21c-.78-.06-1.56-.08-2.29-.08a28.15 28.15 0 0 0-3.08.19 30.48 30.48 0 0 0-9.87 2.82 29.85 29.85 0 0 0-8.26 5.85 30.34 30.34 0 0 0-8.44 23.59 1.38 1.38 0 0 1-.22.84 33 33 0 0 0-2.57 4.67 29.57 29.57 0 0 0 10.08 36.43 29.58 29.58 0 0 0 4.61 2.7 1.4 1.4 0 0 1 .61.62 30.8 30.8 0 0 0 2.76 4.54 30.28 30.28 0 0 0 7.38 7.12 29.93 29.93 0 0 0 9.21 4.24 29.06 29.06 0 0 0 7.49.92 30.85 30.85 0 0 0 12.51-2.78 31.45 31.45 0 0 0 4.7-2.67 1.35 1.35 0 0 1 .71-.2c.71 0 1.47.07 2.33.07a29.69 29.69 0 0 0 29.59-27.12 32.65 32.65 0 0 0 0-5.33 1.31 1.31 0 0 1 .22-.85 31.41 31.41 0 0 0 2.56-4.66A30.86 30.86 0 0 0 150 76.88a28.33 28.33 0 0 0-1-7.48zM97.7 38.54a26.47 26.47 0 0 1 7.6-1.18 24.42 24.42 0 0 1 6.34.77 25.74 25.74 0 0 1 12 7.15 1.18 1.18 0 0 1 .23 1.27 1.2 1.2 0 0 1-1.07.72.49.49 0 0 1-.18 0 33.46 33.46 0 0 0-3.35-.32c-.69 0-1.44-.06-2.31 0a44.44 44.44 0 0 0-7.28.68h-.16a1.28 1.28 0 0 1-.74-.26 41.7 41.7 0 0 0-8.07-5.21 33.18 33.18 0 0 0-3.07-1.34 1.13 1.13 0 0 1-.74-1.13 1.14 1.14 0 0 1 .8-1.15zM82.22 50.68a30.88 30.88 0 0 1 6.4-7.16 1.2 1.2 0 0 1 .76-.27h.18a31.4 31.4 0 0 1 9.16 2.86c.83.4 1.7.88 2.68 1.46a1.18 1.18 0 0 1 .55 1.15 1.14 1.14 0 0 1-.82 1c-1.16.36-2.26.72-3.34 1.08l-.44.15c-2.32.75-4 1.28-5.69 1.76s-3.34.85-5.12 1.25l-.64.15c-1.28.28-2.56.57-3.9.9a.88.88 0 0 1-.27 0 1.16 1.16 0 0 1-1-.57 1.18 1.18 0 0 1 0-1.15c.42-.87.94-1.76 1.49-2.61zM64.77 93.25a42.64 42.64 0 0 0-.46 9.49c.07 1 .2 2.15.38 3.32a1.17 1.17 0 0 1-.25 1 1.24 1.24 0 0 1-.89.41 1.12 1.12 0 0 1-.8-.31A24.86 24.86 0 0 1 55.6 81.3a1.18 1.18 0 0 1 2.22-.11c.41 1 .88 2.07 1.38 3.06a42.73 42.73 0 0 0 5.27 7.92 1.33 1.33 0 0 1 .3 1.08zM68 80.75c-.39 1.24-.78 2.5-1.18 3.82a1.16 1.16 0 0 1-1.11.85 1.14 1.14 0 0 1-1-.55 28.92 28.92 0 0 1-1.51-2.64 31 31 0 0 1-3-9.45 27.22 27.22 0 0 1-.3-6.78c0-.46.09-.88.16-1.31a24.9 24.9 0 0 1 19.15-21 1.2 1.2 0 0 1 .28 0 1.12 1.12 0 0 1 1 .65 1.15 1.15 0 0 1-.13 1.25c-.66.84-1.31 1.75-2 2.71a42.08 42.08 0 0 0-4.35 8.9.48.48 0 0 1-.29.3 43 43 0 0 0-8.07 4c-.45.29-.88.59-1.32.89a.75.75 0 0 0-.34.73c0 .31-.05.62-.08.93s-.07.93-.09 1.39 0 1 0 1.42v.39a.5.5 0 0 0 .79.41c.6-.42 1.21-.83 1.83-1.25l.36-.25c.21-.16.42-.31.64-.45l.35-.23c.67-.45 1.42-.9 2.25-1.36a1.24 1.24 0 0 1 1.49.3 1.23 1.23 0 0 1 .23 1c-.28 1.16-.51 2.28-.74 3.36l-.02.48c-.37 1.88-.79 3.88-1.29 5.8s-1 3.54-1.57 5.36zm4.45 32.06l-1.2-.44-.15-.09-.1-.17a31.61 31.61 0 0 1-2.21-9.67 28.43 28.43 0 0 1-.07-3 1.16 1.16 0 0 1 1.17-1.14 1.15 1.15 0 0 1 .79.3c1 .94 2 1.83 3 2.68l.23.21c1.36 1.21 2.79 2.51 4.14 3.82s2.64 2.73 4.09 4.31c.38.41.77.82 1.15 1.24l.11.12a.12.12 0 0 0 .12 0 33.85 33.85 0 0 0 4.61-.41.5.5 0 0 0 .28-.85c-1-1-1.92-2-3-3.18l-.47-.54c-1.18-1.28-2.46-2.65-3.77-3.94s-2.57-2.43-3.85-3.58l-.71-.64c-1.53-1.37-3-2.65-4.46-4.09-.67-.62-1.33-1.28-2-1.94a1.38 1.38 0 0 1-.34-1.25c.21-.9.43-1.79.67-2.65.52-1.94 1.09-3.75 1.58-5.3l.32-1.06C73 79.72 73.55 78 74 76.17s.91-3.86 1.36-6l.18-.88c.33-1.53.7-3.27 1.15-5.07.19-.79.42-1.68.7-2.63a1.41 1.41 0 0 1 .93-.94c.78-.25 1.51-.45 2.18-.65l.43-.12c2.12-.55 4.11-1 5.94-1.41l.74-.17c1.82-.42 3.53-.82 5.24-1.29s3.6-1.09 5.33-1.64l.56-.18c1.81-.6 3.75-1.24 5.81-1.85 1.21-.34 2.19-.6 3.1-.81a43.64 43.64 0 0 1 6.85-1.08c.84-.07 1.68-.11 2.5-.11h2a31.29 31.29 0 0 1 9.67 2.07.49.49 0 0 1 .3.28 31.19 31.19 0 0 1 2.23 9.67c.06.94.08 1.93.06 3a1.17 1.17 0 0 1-2 .84c-1-.94-2-1.83-3-2.68l-.5-.45c-1.36-1.22-2.65-2.39-3.87-3.57s-2.46-2.55-3.74-3.92l-.38-.41-.82-.9-.22-.27a.41.41 0 0 0-.3-.11 33.6 33.6 0 0 0-4.5.41.51.51 0 0 0-.29.85c.87.91 1.71 1.82 2.65 2.81l.77.85c1.22 1.31 2.48 2.67 3.8 4s2.92 2.76 4.38 4.07l.69.6.54.5c1.11 1 2.26 2 3.43 3.16.67.64 1.43 1.4 2.23 2.25a.55.55 0 0 1 .13.46c-.23 1.07-.49 2.11-.77 3.11-.55 2-1.12 3.89-1.67 5.67l-.13.42c-.6 1.93-1.17 3.76-1.67 5.67s-.88 3.75-1.35 6l-.24 1.15c-.33 1.54-.68 3.14-1.09 4.82q-.33 1.38-.84 3.09a.53.53 0 0 1-.34.33c-1.11.35-2.15.65-3 .89-2.12.56-4.12 1-5.92 1.42l-.29.06c-1.87.43-3.81.87-5.72 1.39s-3.83 1.16-5.72 1.74l-.06.05-.94.31c-1.59.52-3.23 1.06-5 1.57h-.12c-.7.21-1.77.51-3 .79a45.45 45.45 0 0 1-6.84 1.08c-.83.07-1.68.11-2.5.11h-2l-1.27-.09-1.12-.13-.34-.05-.94-.25a1 1 0 0 1-.19 0c-.3 0-.6-.11-.88-.18-.56-.1-1.12-.23-1.66-.37-.65-.15-1.41-.37-2.21-.64zm29.89 14.49a26.43 26.43 0 0 1-7.6 1.19 24.77 24.77 0 0 1-6.35-.77 25.75 25.75 0 0 1-12-7.16 1.16 1.16 0 0 1-.23-1.26 1.18 1.18 0 0 1 1.07-.71h.19c1.09.16 2.22.28 3.33.34.77 0 1.56.06 2.35.05a44.19 44.19 0 0 0 7.22-.69h.2a1.2 1.2 0 0 1 .72.24 43 43 0 0 0 8.08 5.23c1 .46 2 .91 3.07 1.32a1.19 1.19 0 0 1 .76 1.14 1.17 1.17 0 0 1-.82 1.08zm15.47-12.13a30.61 30.61 0 0 1-6.39 7.15 1.12 1.12 0 0 1-.74.28h-.19a30.6 30.6 0 0 1-9.17-2.85c-.94-.46-1.84-1-2.68-1.46a1.19 1.19 0 0 1 .27-2.14c1-.31 2-.62 3-.95l.83-.26c2-.65 3.81-1.25 5.67-1.78 1.64-.45 3.32-.84 5.09-1.23l.71-.17c1.26-.28 2.54-.57 3.87-.89a1.33 1.33 0 0 1 .28 0 1.14 1.14 0 0 1 1 .57 1.18 1.18 0 0 1 0 1.14c-.49.87-1.02 1.76-1.56 2.59zM136 103.24a1.18 1.18 0 0 0 0-.24 31.43 31.43 0 0 0 .27-4.4.5.5 0 0 0-.79-.41c-1 .67-1.92 1.31-3 2-.77.52-1.65 1.06-2.61 1.59a1.11 1.11 0 0 1-.55.15 1.17 1.17 0 0 1-.94-.44 1.23 1.23 0 0 1-.23-1c.25-1 .45-2 .65-3l.21-.92c.34-1.74.77-3.8 1.29-5.82.47-1.79 1-3.6 1.58-5.35l.1-.32c.39-1.24.77-2.51 1.16-3.84a1.17 1.17 0 0 1 1.13-.84 1.23 1.23 0 0 1 1 .54c.6 1 1.09 1.83 1.5 2.65a31.29 31.29 0 0 1 3 9.45 26.75 26.75 0 0 1 .24 6.78c0 .45-.09.89-.17 1.32a24.88 24.88 0 0 1-19.14 21 1.17 1.17 0 0 1-.27 0 1.13 1.13 0 0 1-1-.66 1.14 1.14 0 0 1 .13-1.25c.68-.85 1.33-1.76 2-2.71a43.27 43.27 0 0 0 4.22-8.54 1.4 1.4 0 0 1 .8-.8 41.76 41.76 0 0 0 7.82-3.94l1.19-.79a1.06 1.06 0 0 0 .33-.24zm8.48-18.66a1.17 1.17 0 0 1-2.21.09c-.41-1-.88-2.06-1.38-3a43.45 43.45 0 0 0-5.29-7.93 1.35 1.35 0 0 1-.29-1.08 42.81 42.81 0 0 0 .47-9.49c-.1-1.18-.22-2.31-.39-3.33a1.16 1.16 0 0 1 .25-.93 1.21 1.21 0 0 1 .91-.42 1.13 1.13 0 0 1 .79.3 24.93 24.93 0 0 1 7.1 25.79z" transform="translate(-50.06 -32.81)"/><path style="fill:#fff;" d="M67.84 65.36l-.23.16-.76.48c.21-.16.42-.31.64-.45z" transform="translate(-50.06 -32.81)"/></svg>